<svg xmlns="http://www.w3.org/2000/svg" fill-rule="evenodd" clip-rule="evenodd" image-rendering="optimizeQuality" shape-rendering="geometricPrecision" text-rendering="geometricPrecision" viewBox="0 0 1.707 1.707"><defs><linearGradient id="a" x1="0" x2="1.707" y1=".853" y2=".853" gradientUnits="userSpaceOnUse"><stop offset="0" stop-color="#ec297b"/><stop offset=".059" stop-color="#db2776"/><stop offset=".169" stop-color="#c0236d"/><stop offset=".278" stop-color="#ad2168"/><stop offset=".4" stop-color="#a21f64"/><stop offset=".522" stop-color="#9e1f63"/><stop offset=".961" stop-color="#90278e"/><stop offset="1" stop-color="#90278e"/></linearGradient></defs><path fill="url(#a)" d="M0.0893071 1.40463l0 -0.649075c0.0545984,0.0500512 0.127319,0.0806417 0.207067,0.0806417 0.0797283,0 0.152429,-0.0305709 0.207024,-0.0806024l0 0.649035 -0.414091 0zm1.30101 -0.368063c-0.0694882,-0.00517323 -0.131642,-0.0371024 -0.176177,-0.0854803 0.0216614,-0.0266535 0.0729331,-0.0609252 0.0943307,-0.0609252l0.0542126 0 0.0276339 0.0407402 0 0.105665zm-0.200181 -0.11563c-0.0293346,-0.0428307 -0.0465236,-0.0946063 -0.0465236,-0.150327 0,-0.147051 0.119638,-0.266705 0.266705,-0.266705 0.147067,0 0.266701,0.119638 0.266701,0.266705 0,0.0557244 -0.0171929,0.107504 -0.0465315,0.150335 -0.0316181,-0.0373228 -0.0843701,-0.0707835 -0.118339,-0.0707835l-0.0448268 0 0 -0.0079685c0.0202362,-0.0162244 0.0353976,-0.0394016 0.0445394,-0.061122 0.0355866,-0.039122 0.0451929,-0.0922638 0.025,-0.139598 -0.0196969,-0.0461654 -0.0619016,-0.0748307 -0.11015,-0.0748307 -0.0264291,0 -0.0668504,0.00892913 -0.111433,0.0506063 -0.0245118,0.00444488 -0.0359291,0.0180315 -0.0412205,0.0291535 -0.0198386,0.0417205 0.0198228,0.108067 0.031248,0.125732 0.0093622,0.0263504 0.0259921,0.0525551 0.0479843,0.0700945l0 0.00793307 -0.0448346 0c-0.0339606,0 -0.0867047,0.0334606 -0.118319,0.0707756zm0.416358 0.0301496c-0.0445354,0.048378 -0.106685,0.0803071 -0.176177,0.0854803l0 -0.105665 0.0276299 -0.0407402 0.0542165 0c0.0213819,0 0.0726654,0.0342717 0.0943307,0.0609252zm-0.17915 -0.0870669l-0.0170276 0.0250984 -0.0170276 -0.0250984 0 -0.00229134c0.00339764,0.000712598 0.00687008,0.00121654 0.0104016,0.00150394l0.000208661 1.5748e-005 9.05512e-005 7.87402e-006 0.000299213 1.9685e-005 0.000145669 1.1811e-005 0.000153543 1.1811e-005 0.000299213 1.9685e-005 8.26772e-005 7.87402e-006 0.000216535 1.1811e-005 0.000299213 1.5748e-005 1.5748e-005 3.93701e-006 0.000283465 1.5748e-005 0.000251969 1.5748e-005 4.72441e-005 0 0.000299213 1.1811e-005 0.000185039 1.1811e-005 0.00011811 3.93701e-006 0.000299213 1.1811e-005 0.00011811 7.87402e-006 0.000185039 3.93701e-006 0.000299213 1.1811e-005 5.11811e-005 3.93701e-006 0.000251969 3.93701e-006c0.0014252,4.72441e-005 0.00284252,4.72441e-005 0.00425591,1.5748e-005l0.00030315 -3.93701e-006 0 -3.93701e-006 0.00030315 -7.87402e-006 0.000232283 -3.93701e-006 7.08661e-005 -3.93701e-006 0.00030315 -1.1811e-005 0.000161417 -3.93701e-006 0.000137795 -7.87402e-006 0.00030315 -1.1811e-005 9.05512e-005 -3.93701e-006 0.000212598 -1.1811e-005 0.000299213 -1.1811e-005 2.3622e-005 0 0.000279528 -1.5748e-005 0.000255906 -1.5748e-005 4.33071e-005 -3.93701e-006 0.000299213 -1.5748e-005 0.000188976 -1.1811e-005 0.000110236 -7.87402e-006 0.000299213 -1.9685e-005 0.000125984 -1.1811e-005 0.000173228 -1.1811e-005 0.000299213 -1.9685e-005 6.29921e-005 -7.87402e-006c0.00361417,-0.000283465 0.00715748,-0.000787402 0.0106181,-0.00151575l0 0.0022874zm0.0458937 -0.0944685c-0.00227165,-0.00697244 -0.0049252,-0.0175984 -0.00592126,-0.0311811 -0.0145118,0.00247244 -0.0337638,0.00487795 -0.0538031,0.00487795 -0.0235079,0 -0.0435039,-0.00327559 -0.0598504,-0.00980315 -0.00145669,0.00918898 -0.00361417,0.0187795 -0.00676772,0.027189l-1.5748e-005 3.14961e-005 -0.00015748 0.000425197 -8.66142e-005 0.000220472 -9.05512e-005 0.00023622 -0.000413386 0.00103937 -0.000125984 0.000311024 -0.000129921 0.000318898 -5.11811e-005 0.000125984 -0.000185039 0.000440945 -2.75591e-005 5.90551e-005 -0.000161417 0.00038189 -0.000102362 0.00023622 -8.66142e-005 0.000200787c0.00816142,0.019815 0.0216457,0.0387992 0.0376614,0.0496142 0.000409449,0.000224409 0.000811024,0.000464567 0.00120866,0.000720472 0.0174449,0.0112756 0.0349016,0.0112756 0.0523465,0l0.000633858 -0.000393701c0.0152205,-0.0101181 0.0280197,-0.0275157 0.036126,-0.0450512zm-0.0465197 -0.162925c-0.028563,0 -0.0590669,0.0151378 -0.0882323,0.0437874 -0.00326378,0.00320866 -0.00752756,0.00519685 -0.0120827,0.0056378 -0.0132362,0.00129134 -0.0154724,0.00597244 -0.0162126,0.00751181 -0.00425197,0.00890157 -0.000637795,0.0254409 0.00615354,0.0428583 0.000177165,-0.00287402 0.00030315,-0.00567717 0.000374016,-0.0083622 0.000192913,-0.00819291 0.00535827,-0.0154409 0.0130394,-0.0182913 0.0022874,-0.000838583 0.00466142,-0.00123622 0.00701181,-0.00122835l0.000354331 0 1.5748e-005 3.93701e-006 0.000350394 7.87402e-006 1.5748e-005 3.93701e-006 0.000354331 1.5748e-005 1.5748e-005 3.93701e-006 0.000350394 1.9685e-005 1.5748e-005 3.93701e-006 0.000354331 2.75591e-005 1.5748e-005 3.93701e-006 0.000350394 3.54331e-005 1.5748e-005 3.93701e-006 0.000350394 3.93701e-005 1.5748e-005 3.93701e-006 0.000346457 4.72441e-005 1.5748e-005 3.93701e-006 0.000346457 5.51181e-005 1.5748e-005 3.93701e-006 0.000346457 5.90551e-005 1.5748e-005 3.93701e-006 0.000346457 6.69291e-005 1.5748e-005 3.93701e-006 0.00034252 7.48031e-005 1.5748e-005 3.93701e-006 0.00034252 8.26772e-005 1.5748e-005 3.93701e-006 0.000338583 8.66142e-005 1.5748e-005 3.93701e-006 0.000338583 9.05512e-005 1.5748e-005 3.93701e-006 0.000338583 0.000102362 1.5748e-005 3.93701e-006 0.000334646 0.000106299 1.5748e-005 3.93701e-006 0.000330709 0.000114173 1.5748e-005 3.93701e-006 0.000330709 0.00011811 1.5748e-005 3.93701e-006 0.000330709 0.000125984 1.5748e-005 3.93701e-006 0.000326772 0.000129921 1.5748e-005 3.93701e-006 0.000322835 0.000141732 1.5748e-005 3.93701e-006 0.000318898 0.000141732 1.5748e-005 3.93701e-006 0.000318898 0.000153543 1.5748e-005 3.93701e-006 0.000318898 0.00015748 1.5748e-005 3.93701e-006 0.000311024 0.000161417 1.5748e-005 3.93701e-006 0.000311024 0.000169291c0.00195276,0.00105906 0.00377165,0.00244488 0.00529134,0.00417323 0.00299213,0.00332677 0.00683858,0.0062126 0.0114843,0.00864173l0.000767717 0.000397638 1.1811e-005 3.93701e-006 0.000783465 0.000389764 1.5748e-005 3.93701e-006 0.000795276 0.000377953 1.5748e-005 3.93701e-006c0.00135827,0.000629921 0.00277953,0.00122441 0.00425984,0.0017874l1.5748e-005 3.93701e-006c0.00118504,0.000448819 0.00240551,0.000870079 0.00366535,0.00127559l1.1811e-005 0c0.00125984,0.000401575 0.00255906,0.000787402 0.0038937,0.00114173l1.1811e-005 0 0.00202362 0.000515748 1.5748e-005 0 0.00207874 0.000484252 1.1811e-005 0 0.00105512 0.000228346 1.1811e-005 0c0.00894488,0.0018622 0.0193189,0.00281496 0.0309843,0.00281496 0.030626,0 0.0601535,-0.00667323 0.0673189,-0.00841732l1.9685e-005 -7.87402e-006 0.000338583 -8.26772e-005 1.9685e-005 -7.87402e-006 0.000295276 -7.08661e-005 2.3622e-005 -7.87402e-006 0.000244094 -5.90551e-005 2.75591e-005 -7.87402e-006 0.000200787 -5.11811e-005 2.75591e-005 -7.87402e-006 0.000153543 -3.54331e-005 2.75591e-005 -7.87402e-006 0.000106299 -2.75591e-005 3.14961e-005 -7.87402e-006 5.51181e-005 -1.5748e-005 3.14961e-005 -7.87402e-006 7.87402e-006 -3.93701e-006 3.14961e-005 -7.87402e-006 0.00026378 -6.69291e-005c0.00624409,-0.00158268 0.012878,-1.1811e-005 0.0178031,0.00416535 0.00253543,0.00215354 0.00445276,0.00487008 0.00564173,0.00787795 0.00272835,-0.0162283 0.000787402,-0.0330748 -0.00611417,-0.0492323 -0.0132756,-0.0311378 -0.0413819,-0.0505 -0.0733268,-0.0505zm-0.945823 -0.390835l-0.06 0c-0.0110354,0 -0.0199961,-0.00896063 -0.0199961,-0.02 0,-0.0110394 0.00896063,-0.02 0.0199961,-0.02l0.06 0c0.0110394,0 0.02,0.00896063 0.02,0.02 0,0.0110394 -0.00895669,0.02 -0.02,0.02zm-0.109602 0l-0.264287 0c-0.0110394,0 -0.02,-0.00896063 -0.02,-0.02 0,-0.0110394 0.00896063,-0.02 0.02,-0.02l0.264272 0c0.0110394,0 0.02,0.00896063 0.02,0.02 0,0.0110394 -0.00894488,0.02 -0.0199843,0.02zm0.109602 -0.061374l-0.264283 0c-0.0110394,0 -0.02,-0.00896063 -0.02,-0.02 0,-0.0110394 0.00896063,-0.02 0.02,-0.02l0.264283 0c0.0110394,0 0.02,0.00896063 0.02,0.02 0,0.0110394 -0.00894094,0.02 -0.02,0.02zm-0.313878 0l-0.0599961 0c-0.0110394,0 -0.02,-0.00896063 -0.02,-0.02 0,-0.0110394 0.00896063,-0.02 0.02,-0.02l0.0599961 0c0.0110394,0 0.02,0.00896063 0.02,0.02 0,0.0110394 -0.00896063,0.02 -0.02,0.02zm0.313878 -0.0613858l-0.06 0c-0.0110354,0 -0.0199961,-0.00896063 -0.0199961,-0.02 0,-0.0110354 0.00896063,-0.0199961 0.0199961,-0.0199961l0.06 0c0.0110394,0 0.02,0.00896063 0.02,0.0199961 0,0.0110394 -0.00895669,0.02 -0.02,0.02zm-0.109602 0l-0.264287 0c-0.0110394,0 -0.02,-0.00896063 -0.02,-0.02 0,-0.0110354 0.00896063,-0.0199961 0.02,-0.0199961l0.264272 0c0.0110394,0 0.02,0.00896063 0.02,0.0199961 0,0.0110394 -0.00894488,0.02 -0.0199843,0.02zm1.22596 0.384283l-0.0599843 0c-0.0110394,0 -0.02,-0.00896063 -0.02,-0.02 0,-0.0110394 0.00897244,-0.02 0.02,-0.02l0.0599843 0c0.0110394,0 0.02,0.00896063 0.02,0.02 0,0.0110394 -0.00897244,0.02 -0.02,0.02zm-0.10961 0l-0.264272 0c-0.0110394,0 -0.02,-0.00896063 -0.02,-0.02 0,-0.0110394 0.00897244,-0.02 0.02,-0.02l0.264272 0c0.0110394,0 0.02,0.00896063 0.02,0.02 0,0.0110394 -0.00896063,0.02 -0.02,0.02zm0.109626 -0.061374l-0.264272 0c-0.0110394,0 -0.02,-0.00896063 -0.02,-0.02 0,-0.0110394 0.0089685,-0.02 0.02,-0.02l0.264272 0c0.0110394,0 0.02,0.00896063 0.02,0.02 0,0.0110394 -0.00897638,0.02 -0.02,0.02zm-0.313898 0l-0.0599843 0c-0.0110394,0 -0.02,-0.00896063 -0.02,-0.02 0,-0.0110394 0.00897244,-0.02 0.02,-0.02l0.0599843 0c0.0110354,0 0.0199961,0.00896063 0.0199961,0.02 0,0.0110394 -0.00895276,0.02 -0.0199961,0.02zm0.313882 -0.061374l-0.0599843 0c-0.0110394,0 -0.02,-0.00896063 -0.02,-0.02 0,-0.0110394 0.00897244,-0.02 0.02,-0.02l0.0599843 0c0.0110394,0 0.02,0.00896063 0.02,0.02 0,0.0110394 -0.00897244,0.02 -0.02,0.02zm-0.10961 0l-0.264272 0c-0.0110394,0 -0.02,-0.00896063 -0.02,-0.02 0,-0.0110394 0.00897244,-0.02 0.02,-0.02l0.264272 0c0.0110394,0 0.02,0.00896063 0.02,0.02 0,0.0110394 -0.00896063,0.02 -0.02,0.02zm-0.447366 0.351173l-0.0599803 0c-0.0110394,0 -0.02,-0.00896063 -0.02,-0.02 0,-0.0110394 0.0089685,-0.02 0.02,-0.02l0.0599803 0c0.0110394,0 0.02,0.00896063 0.02,0.02 0,0.0110394 -0.00896063,0.02 -0.02,0.02zm-0.109606 0l-0.264276 0c-0.0110394,0 -0.02,-0.00896063 -0.02,-0.02 0,-0.0110394 0.00896063,-0.02 0.02,-0.02l0.264276 0c0.0110354,0 0.0199961,0.00896063 0.0199961,0.02 0,0.0110394 -0.00895276,0.02 -0.0199961,0.02zm0.109622 -0.061374l-0.264272 0c-0.0110394,0 -0.02,-0.00896063 -0.02,-0.02 0,-0.0110394 0.00896063,-0.02 0.02,-0.02l0.264272 0c0.0110394,0 0.02,0.00896063 0.02,0.02 0,0.0110394 -0.00896063,0.02 -0.02,0.02zm-0.313898 0l-0.0599843 0c-0.0110394,0 -0.02,-0.00896063 -0.02,-0.02 0,-0.0110394 0.00896063,-0.02 0.02,-0.02l0.0599843 0c0.0110394,0 0.02,0.00896063 0.02,0.02 0,0.0110394 -0.00895669,0.02 -0.02,0.02zm0.313882 -0.0613858l-0.0599803 0c-0.0110394,0 -0.02,-0.00896063 -0.02,-0.02 0,-0.0110394 0.0089685,-0.02 0.02,-0.02l0.0599803 0c0.0110394,0 0.02,0.00896063 0.02,0.02 0,0.0110394 -0.00896063,0.02 -0.02,0.02zm-0.109606 0l-0.264276 0c-0.0110394,0 -0.02,-0.00896063 -0.02,-0.02 0,-0.0110394 0.00896063,-0.02 0.02,-0.02l0.264276 0c0.0110354,0 0.0199961,0.00896063 0.0199961,0.02 0,0.0110394 -0.00895276,0.02 -0.0199961,0.02zm-0.0866929 0.629008c-0.0183031,-0.000716535 -0.0360709,-0.0035315 -0.0530827,-0.00820079 0.000358268,-0.0284685 -0.000330709,-0.0737047 -0.00207087,-0.10261l0.0281457 -0.0124016 0.0270079 0.034311 0 0.0889016zm0.04 -0.0889094l0.0269567 -0.0342402 0.0284409 0.0123858c-0.0015748,0.0273504 -0.00230709,0.0707087 -0.0021811,0.095563 -0.0169055,0.00643701 -0.0347283,0.0109961 -0.0532165,0.0134055l0 -0.0871142zm-0.123524 -0.053126c-0.0005,0.00019685 -0.000992126,0.000413386 -0.0014685,0.000649606l-0.00981496 0.00432677c-0.00188976,0.000830709 -0.0040315,0.00166535 -0.00633858,0.00251575 0.000787402,-0.0114252 0.00510236,-0.023189 0.00948031,-0.0324961 0.0142402,-0.030248 0.0200354,-0.053626 0.0213583,-0.0714173 0.0046811,0.0211142 0.0151614,0.0422008 0.0295,0.0587874l0 0.0188031 -0.0427165 0.0188307zm-0.0108543 0.047626c0.000929134,0.0219213 0.00138976,0.049311 0.00137795,0.0712559 -0.0208898,-0.0100827 -0.0400787,-0.0231496 -0.0570118,-0.0386417 0.0194921,-0.0116772 0.0495,-0.0298189 0.0556339,-0.0326142zm-0.0835433 0.00225197c-0.0307441,-0.0398976 -0.0490433,-0.0898504 -0.0490433,-0.143996 0,-0.130319 0.106012,-0.236343 0.236331,-0.236343 0.130315,0 0.236339,0.106024 0.236339,0.236343 0,0.0499567 -0.0155827,0.0963307 -0.0421417,0.134539 -0.00745276,-0.00450394 -0.0153031,-0.00912598 -0.022752,-0.0133858 0.00316142,-0.0250276 -0.00530315,-0.0549843 -0.0135276,-0.0841181 -0.00592913,-0.0209961 -0.0120512,-0.0427165 -0.0115551,-0.0574843 -0.000984252,-0.0468425 -0.0160984,-0.0837441 -0.0449173,-0.109701 -0.0488189,-0.0439843 -0.118689,-0.0387087 -0.120413,-0.0385 -0.0530197,0.00109843 -0.088815,0.0163465 -0.10637,0.0453346 -0.0252047,0.0416102 -0.000204724,0.0930276 0.000877953,0.0951929 0.000751969,0.00151575 0.0016811,0.00293307 0.00279134,0.00420866 0.00112598,0.00205512 0.0100866,0.0215276 -0.0155433,0.0759843 -0.0117638,0.0249961 -0.0158386,0.0476772 -0.0122126,0.0677126 -0.0122992,0.00688583 -0.0258504,0.0152953 -0.0378622,0.0242126zm0.35374 0.0236024c-0.0128307,0.0127441 -0.0271102,0.0240276 -0.0425709,0.0335827 0.000161417,-0.0186063 0.000622047,-0.0410236 0.00137795,-0.0594724 0.00459055,0.00256299 0.0257756,0.0161496 0.0411929,0.0258898zm-0.0511693 -0.0730945l-0.000448819 -0.00019685 -0.0434094 -0.0189094 0 -0.0144843c0.0184449,-0.0193031 0.0313504,-0.046 0.035122,-0.071815 0.00122835,0.017685 0.0068937,0.0377717 0.0128465,0.0588346 0.00488583,0.0173189 0.010563,0.0374134 0.0122441,0.0534528 -0.00214567,-0.000795276 -0.0041378,-0.00157087 -0.00590945,-0.00233465l-0.0104449 -0.00454724zm-0.15765 -0.11902c0.000814961,0.0298425 0.024252,0.0681457 0.0496496,0.0730394l0.00042126 7.87402e-005 0.000535433 9.05512e-005 8.66142e-005 1.1811e-005c0.00140945,0.000216535 0.00284252,0.000330709 0.00430709,0.000330709 0.00378346,0 0.00739764,-0.000791339 0.0107402,-0.00204331l0.000437008 -0.000165354 5.11811e-005 -1.9685e-005 0.00069685 -0.000279528 0.000114173 -4.72441e-005 0.000425197 -0.000181102 0.00042126 -0.000185039 1.9685e-005 -7.87402e-006 0.000397638 -0.000185039c0.0225945,-0.0104606 0.0417362,-0.0450866 0.0417362,-0.0720236 0,-0.00112205 -2.75591e-005,-0.00225197 -0.000102362,-0.00335827 -0.00966929,-0.0075 -0.0251654,-0.0208425 -0.0353307,-0.0363189 -0.00935039,0.00505512 -0.0183346,0.00811024 -0.0266929,0.0109449 -0.0163465,0.00554331 -0.0306339,0.0103898 -0.0479134,0.0303189zm0.144693 -0.0279094c-0.00485827,-0.0194921 -0.0140433,-0.0356181 -0.0274843,-0.0477992 -0.035748,-0.0323898 -0.0912913,-0.0285669 -0.0918189,-0.0284724 -0.0275433,0.000598425 -0.0615945,0.00555512 -0.0740984,0.026 -0.0108622,0.017748 -0.0031378,0.0442087 0.00162598,0.0550787 0.00233858,0.00319685 0.0051811,0.00818898 0.00725591,0.0153819l9.44882e-005 -0.00125984c0.00030315,-0.00397244 0.0017874,-0.00777953 0.00427559,-0.0109016 0.0265,-0.033378 0.0509173,-0.0416535 0.0705394,-0.0483189 0.0128898,-0.0043622 0.0230551,-0.00782283 0.0337913,-0.0178346 0.00561024,-0.00523228 0.013748,-0.00679134 0.020874,-0.00402362l0.00207087 0.00084252c0.00767717,0.00320866 0.0129291,0.0109882 0.0126378,0.0192913 0.000767717,0.00664173 0.0181693,0.0250709 0.0357913,0.0376535 0.0017126,0.00122047 0.00320472,0.00269685 0.00444488,0.0043622zm-0.108709 0.138807l0.0170157 0.0216142 0.0160551 -0.0204016c-0.00142913,0.000295276 -0.00286614,0.000543307 -0.00430315,0.000748031l-4.33071e-005 7.87402e-006 -0.000173228 2.3622e-005 -0.000220472 3.14961e-005 -0.000216535 2.75591e-005 -3.93701e-005 7.87402e-006 -0.000181102 2.3622e-005c-0.00291732,0.000393701 -0.00587402,0.000602362 -0.00886614,0.000602362 -0.00307087,0 -0.00610236,-0.000220472 -0.00909449,-0.000629921l-0.000185039 -2.3622e-005 -0.000114173 -1.5748e-005 -0.000299213 -4.33071e-005c-0.00313386,-0.000444882 -0.00625197,-0.00109843 -0.00933465,-0.00197244zm-0.570583 -0.266764c-0.0694882,-0.00517323 -0.131642,-0.0371024 -0.176177,-0.0854803 0.0216614,-0.0266535 0.0729331,-0.0609252 0.0943307,-0.0609252l0.0542126 0 0.0276339 0.0407402 0 0.105665zm-0.200181 -0.11563c-0.0293346,-0.0428307 -0.0465236,-0.0946063 -0.0465236,-0.150327 0,-0.147051 0.119638,-0.266705 0.266705,-0.266705 0.147067,0 0.266701,0.119638 0.266701,0.266705 0,0.0557244 -0.0171929,0.107504 -0.0465315,0.150335 -0.0316181,-0.0373228 -0.0843701,-0.0707835 -0.118339,-0.0707835l-0.0448268 0 0 -0.0079685c0.0202362,-0.0162244 0.0353976,-0.0394016 0.0445394,-0.061122 0.0355866,-0.039122 0.0451929,-0.0922638 0.025,-0.139598 -0.0196969,-0.0461654 -0.0619016,-0.0748307 -0.11015,-0.0748307 -0.0264291,0 -0.0668504,0.00892913 -0.111433,0.0506063 -0.0245118,0.00444488 -0.0359291,0.0180315 -0.0412205,0.0291535 -0.0198386,0.0417205 0.0198228,0.108067 0.031248,0.125732 0.0093622,0.0263504 0.0259921,0.0525551 0.0479843,0.0700945l0 0.00793307 -0.0448346 0c-0.0339606,0 -0.0867047,0.0334606 -0.118319,0.0707756zm0.416358 0.0301496c-0.0445354,0.048378 -0.106685,0.0803071 -0.176177,0.0854803l0 -0.105665 0.0276299 -0.0407402 0.0542165 0c0.0213819,0 0.0726654,0.0342717 0.0943307,0.0609252zm-0.17915 -0.0870669l-0.0170276 0.0250984 -0.0170276 -0.0250984 0 -0.00229134c0.00339764,0.000712598 0.00687008,0.00121654 0.0104016,0.00150394l0.000208661 1.5748e-005 9.05512e-005 7.87402e-006 0.000299213 1.9685e-005 0.000145669 1.1811e-005 0.000153543 1.1811e-005 0.000299213 1.9685e-005 8.26772e-005 7.87402e-006 0.000216535 1.1811e-005 0.000299213 1.5748e-005 1.5748e-005 3.93701e-006 0.000283465 1.5748e-005 0.000251969 1.5748e-005 4.72441e-005 0 0.000299213 1.1811e-005 0.000185039 1.1811e-005 0.00011811 3.93701e-006 0.000299213 1.1811e-005 0.00011811 7.87402e-006 0.000185039 3.93701e-006 0.000299213 1.1811e-005 5.11811e-005 3.93701e-006 0.000251969 3.93701e-006c0.0014252,4.72441e-005 0.00284252,4.72441e-005 0.00425591,1.5748e-005l0.00030315 -3.93701e-006 0 -3.93701e-006 0.00030315 -7.87402e-006 0.000232283 -3.93701e-006 7.08661e-005 -3.93701e-006 0.00030315 -1.1811e-005 0.000161417 -3.93701e-006 0.000137795 -7.87402e-006 0.00030315 -1.1811e-005 9.05512e-005 -3.93701e-006 0.000212598 -1.1811e-005 0.000299213 -1.1811e-005 2.3622e-005 0 0.000279528 -1.5748e-005 0.000255906 -1.5748e-005 4.33071e-005 -3.93701e-006 0.000299213 -1.5748e-005 0.000188976 -1.1811e-005 0.000110236 -7.87402e-006 0.000299213 -1.9685e-005 0.000125984 -1.1811e-005 0.000173228 -1.1811e-005 0.000299213 -1.9685e-005 6.29921e-005 -7.87402e-006c0.00361417,-0.000283465 0.00715748,-0.000787402 0.0106181,-0.00151575l0 0.0022874zm0.0458937 -0.0944685c-0.00227165,-0.00697244 -0.0049252,-0.0175984 -0.00592126,-0.0311811 -0.0145118,0.00247244 -0.0337638,0.00487795 -0.0538031,0.00487795 -0.0235079,0 -0.0435039,-0.00327559 -0.0598504,-0.00980315 -0.00145669,0.00918898 -0.00361417,0.0187795 -0.00676772,0.027189l-1.5748e-005 3.14961e-005 -0.00015748 0.000425197 -8.66142e-005 0.000220472 -9.05512e-005 0.00023622 -0.000413386 0.00103937 -0.000125984 0.000311024 -0.000129921 0.000318898 -5.11811e-005 0.000125984 -0.000185039 0.000440945 -2.75591e-005 5.90551e-005 -0.000161417 0.00038189 -0.000102362 0.00023622 -8.66142e-005 0.000200787c0.00816142,0.019815 0.0216457,0.0387992 0.0376614,0.0496142 0.000409449,0.000224409 0.000811024,0.000464567 0.00120866,0.000720472 0.0174449,0.0112756 0.0349016,0.0112756 0.0523465,0l0.000633858 -0.000393701c0.0152205,-0.0101181 0.0280197,-0.0275157 0.036126,-0.0450512zm-0.0465197 -0.162925c-0.028563,0 -0.0590669,0.0151378 -0.0882323,0.0437874 -0.00326378,0.00320866 -0.00752756,0.00519685 -0.0120827,0.0056378 -0.0132362,0.00129134 -0.0154724,0.00597244 -0.0162126,0.00751181 -0.00425197,0.00890157 -0.000637795,0.0254409 0.00615354,0.0428583 0.000177165,-0.00287402 0.00030315,-0.00567717 0.000374016,-0.0083622 0.000192913,-0.00819291 0.00535827,-0.0154409 0.0130394,-0.0182913 0.0022874,-0.000838583 0.00466142,-0.00123622 0.00701181,-0.00122835l0.000354331 0 1.5748e-005 3.93701e-006 0.000350394 7.87402e-006 1.5748e-005 3.93701e-006 0.000354331 1.5748e-005 1.5748e-005 3.93701e-006 0.000350394 1.9685e-005 1.5748e-005 3.93701e-006 0.000354331 2.75591e-005 1.5748e-005 3.93701e-006 0.000350394 3.54331e-005 1.5748e-005 3.93701e-006 0.000350394 3.93701e-005 1.5748e-005 3.93701e-006 0.000346457 4.72441e-005 1.5748e-005 3.93701e-006 0.000346457 5.51181e-005 1.5748e-005 3.93701e-006 0.000346457 5.90551e-005 1.5748e-005 3.93701e-006 0.000346457 6.69291e-005 1.5748e-005 3.93701e-006 0.00034252 7.48031e-005 1.5748e-005 3.93701e-006 0.00034252 8.26772e-005 1.5748e-005 3.93701e-006 0.000338583 8.66142e-005 1.5748e-005 3.93701e-006 0.000338583 9.05512e-005 1.5748e-005 3.93701e-006 0.000338583 0.000102362 1.5748e-005 3.93701e-006 0.000334646 0.000106299 1.5748e-005 3.93701e-006 0.000330709 0.000114173 1.5748e-005 3.93701e-006 0.000330709 0.00011811 1.5748e-005 3.93701e-006 0.000330709 0.000125984 1.5748e-005 3.93701e-006 0.000326772 0.000129921 1.5748e-005 3.93701e-006 0.000322835 0.000141732 1.5748e-005 3.93701e-006 0.000318898 0.000141732 1.5748e-005 3.93701e-006 0.000318898 0.000153543 1.5748e-005 3.93701e-006 0.000318898 0.00015748 1.5748e-005 3.93701e-006 0.000311024 0.000161417 1.5748e-005 3.93701e-006 0.000311024 0.000169291c0.00195276,0.00105906 0.00377165,0.00244488 0.00529134,0.00417323 0.00299213,0.00332677 0.00683858,0.0062126 0.0114843,0.00864173l0.000767717 0.000397638 1.1811e-005 3.93701e-006 0.000783465 0.000389764 1.5748e-005 3.93701e-006 0.000795276 0.000377953 1.5748e-005 3.93701e-006c0.00135827,0.000629921 0.00277953,0.00122441 0.00425984,0.0017874l1.5748e-005 3.93701e-006c0.00118504,0.000448819 0.00240551,0.000870079 0.00366535,0.00127559l1.1811e-005 0c0.00125984,0.000401575 0.00255906,0.000787402 0.0038937,0.00114173l1.1811e-005 0 0.00202362 0.000515748 1.5748e-005 0 0.00207874 0.000484252 1.1811e-005 0 0.00105512 0.000228346 1.1811e-005 0c0.00894488,0.0018622 0.0193189,0.00281496 0.0309843,0.00281496 0.030626,0 0.0601535,-0.00667323 0.0673189,-0.00841732l1.9685e-005 -7.87402e-006 0.000338583 -8.26772e-005 1.9685e-005 -7.87402e-006 0.000295276 -7.08661e-005 2.3622e-005 -7.87402e-006 0.000244094 -5.90551e-005 2.75591e-005 -7.87402e-006 0.000200787 -5.11811e-005 2.75591e-005 -7.87402e-006 0.000153543 -3.54331e-005 2.75591e-005 -7.87402e-006 0.000106299 -2.75591e-005 3.14961e-005 -7.87402e-006 5.51181e-005 -1.5748e-005 3.14961e-005 -7.87402e-006 7.87402e-006 -3.93701e-006 3.14961e-005 -7.87402e-006 0.00026378 -6.69291e-005c0.00624409,-0.00158268 0.012878,-1.1811e-005 0.0178031,0.00416535 0.00253543,0.00215354 0.00445276,0.00487008 0.00564173,0.00787795 0.00272835,-0.0162283 0.000787402,-0.0330748 -0.00611417,-0.0492323 -0.0132756,-0.0311378 -0.0413819,-0.0505 -0.0733268,-0.0505zm0.333508 1.03912l0 -0.245996c0.0506614,0.0573228 0.124689,0.0935354 0.207047,0.0935354 0.0823622,0 0.156398,-0.0362165 0.207067,-0.0935433l0 0.246004 -0.414114 0zm0.556945 0l0 -0.408185c0.056622,0.0519567 0.129602,0.0804921 0.207079,0.0804921 3.93701e-006,0 7.87402e-006,0 1.1811e-005,0 0,0 3.93701e-006,0 3.93701e-006,0 3.93701e-006,0 7.87402e-006,0 1.1811e-005,0 0.0774488,-7.87402e-006 0.15039,-0.0285512 0.207016,-0.0804488l0 0.408142 -0.414122 0zm0.483417 0.249004l-1.66663 0c-0.0110394,0 -0.02,-0.0089685 -0.02,-0.0199961l0 -0.169012c0,-0.0110394 0.00896063,-0.02 0.02,-0.02l1.66663 0c0.0110394,0 0.02,0.00897244 0.02,0.02l0 0.169012c0,0.0110433 -0.00895276,0.0199961 -0.02,0.0199961z"/></svg>